<?xml version="1.0" encoding="UTF-8"?>
<!DOCTYPE svg PUBLIC "-//W3C//DTD SVG 1.1//EN" "http://www.w3.org/Graphics/SVG/1.1/DTD/svg11.dtd">
<svg xmlns="http://www.w3.org/2000/svg" version="1.1" width="577px" height="433px" style="shape-rendering:geometricPrecision; text-rendering:geometricPrecision; image-rendering:optimizeQuality; fill-rule:evenodd; clip-rule:evenodd" xmlns:xlink="http://www.w3.org/1999/xlink">
<g><path style="opacity:0.999" fill="#151515" d="M 410.5,126.5 C 413.5,126.5 416.5,126.5 419.5,126.5C 419.333,137.838 419.5,149.172 420,160.5C 425.286,149.958 433.453,147.125 444.5,152C 452.694,159.069 456.361,168.069 455.5,179C 456.524,190.284 452.858,199.617 444.5,207C 433.492,211.888 425.326,209.055 420,198.5C 419.502,201.482 419.335,204.482 419.5,207.5C 416.5,207.5 413.5,207.5 410.5,207.5C 410.5,180.5 410.5,153.5 410.5,126.5 Z M 427.5,157.5 C 437.522,155.705 443.688,159.705 446,169.5C 447.08,178.326 446.413,186.993 444,195.5C 436.639,203.117 428.972,203.45 421,196.5C 419.408,186.241 419.074,175.907 420,165.5C 421.327,161.675 423.827,159.008 427.5,157.5 Z"/></g>
<g><path style="opacity:0.999" fill="#0f0f0f" d="M 73.5,131.5 C 76.5,131.5 79.5,131.5 82.5,131.5C 82.39,145.181 82.2233,158.848 82,172.5C 92.0263,159.307 101.86,145.974 111.5,132.5C 115.122,131.341 118.789,131.175 122.5,132C 113.925,142.485 105.592,153.152 97.5,164C 106.5,178.333 115.5,192.667 124.5,207C 120.577,207.793 116.744,207.626 113,206.5C 106.085,194.335 98.9184,182.335 91.5,170.5C 88.8579,174.309 86.0246,177.976 83,181.5C 82.5002,190.16 82.3336,198.827 82.5,207.5C 79.5,207.5 76.5,207.5 73.5,207.5C 73.5,182.167 73.5,156.833 73.5,131.5 Z"/></g>
<g><path style="opacity:0.999" fill="#0c0c0c" d="M 291.5,131.5 C 302.172,131.333 312.839,131.5 323.5,132C 331.245,134.744 336.745,139.911 340,147.5C 345.298,164.585 344.298,181.252 337,197.5C 333.586,202.252 329.086,205.419 323.5,207C 312.839,207.5 302.172,207.667 291.5,207.5C 291.5,182.167 291.5,156.833 291.5,131.5 Z M 300.5,139.5 C 324.917,134.922 335.917,144.922 333.5,169.5C 335.917,194.078 324.917,204.078 300.5,199.5C 300.5,179.5 300.5,159.5 300.5,139.5 Z"/></g>
<g><path style="opacity:0.999" fill="#0d0d0d" d="M 251.5,149.5 C 260.133,148.754 266.967,151.754 272,158.5C 273.429,172.441 273.929,186.441 273.5,200.5C 275.5,200.5 277.5,200.5 279.5,200.5C 279.5,202.833 279.5,205.167 279.5,207.5C 275.818,207.665 272.152,207.499 268.5,207C 266.226,204.656 265.059,201.822 265,198.5C 258.722,209.614 249.888,212.114 238.5,206C 231.913,197.316 231.913,188.649 238.5,180C 241.215,178.092 244.215,176.759 247.5,176C 253.491,175.501 259.491,175.334 265.5,175.5C 267.922,161.424 262.256,155.591 248.5,158C 245.37,160.128 242.537,162.628 240,165.5C 237.705,163.92 236.372,161.92 236,159.5C 239.863,153.994 245.029,150.661 251.5,149.5 Z M 252.5,181.5 C 256.833,181.5 261.167,181.5 265.5,181.5C 267.212,196.96 260.545,203.126 245.5,200C 242.151,195.522 241.651,190.688 244,185.5C 246.682,183.671 249.516,182.337 252.5,181.5 Z"/></g>
<g><path style="opacity:1" fill="#0f0f0f" d="M 372.5,149.5 C 385.454,148.386 393.621,154.052 397,166.5C 398.05,171.448 398.55,176.448 398.5,181.5C 386.5,181.5 374.5,181.5 362.5,181.5C 361.011,197.518 368.011,203.685 383.5,200C 387.085,198.084 389.585,195.251 391,191.5C 393.167,193 395.333,194.5 397.5,196C 389.982,208.552 379.315,212.219 365.5,207C 360.123,203.957 356.623,199.457 355,193.5C 351.738,181.514 352.738,169.847 358,158.5C 361.752,153.551 366.585,150.551 372.5,149.5 Z M 370.5,157.5 C 383.869,155.866 390.203,161.866 389.5,175.5C 380.5,175.5 371.5,175.5 362.5,175.5C 361.521,167.737 364.187,161.737 370.5,157.5 Z"/></g>
<g><path style="opacity:0.999" fill="#0f0f0f" d="M 480.5,149.5 C 489.184,148.831 496.184,151.831 501.5,158.5C 500.167,160.5 498.5,162.167 496.5,163.5C 491.75,157.857 485.75,156.024 478.5,158C 475.249,159.59 473.583,162.257 473.5,166C 474.024,168.413 475.024,170.58 476.5,172.5C 482.756,174.545 489.09,176.378 495.5,178C 498.728,179.563 500.895,182.063 502,185.5C 505.113,200.382 499.113,208.382 484,209.5C 475.356,209.096 468.523,205.43 463.5,198.5C 465.46,196.844 467.46,195.177 469.5,193.5C 474.051,200.44 480.385,202.94 488.5,201C 494.715,197.425 496.048,192.425 492.5,186C 487.003,183.832 481.336,182.165 475.5,181C 468.578,178.409 465.245,173.409 465.5,166C 466.219,156.454 471.219,150.954 480.5,149.5 Z"/></g>
<g><path style="opacity:0.999" fill="#0e0e0e" d="M 133.5,151.5 C 136.5,151.5 139.5,151.5 142.5,151.5C 142.333,165.837 142.5,180.171 143,194.5C 148.805,202.99 155.471,203.656 163,196.5C 163.862,194.913 164.529,193.246 165,191.5C 165.5,178.171 165.667,164.837 165.5,151.5C 168.167,151.5 170.833,151.5 173.5,151.5C 173.5,170.167 173.5,188.833 173.5,207.5C 170.833,207.5 168.167,207.5 165.5,207.5C 165.665,204.482 165.498,201.482 165,198.5C 160.646,208.046 153.479,211.213 143.5,208C 137.812,205.807 134.645,201.64 134,195.5C 133.5,180.837 133.333,166.17 133.5,151.5 Z"/></g>
<g><path style="opacity:0.999" fill="#0e0e0e" d="M 183.5,151.5 C 187.03,150.989 190.196,151.656 193,153.5C 198.109,168.934 202.442,184.601 206,200.5C 210.2,184.701 214.867,169.034 220,153.5C 222.522,151.338 225.355,151.005 228.5,152.5C 221.103,176.525 213.603,200.525 206,224.5C 205.167,226.667 203.667,228.167 201.5,229C 197.848,229.499 194.182,229.665 190.5,229.5C 190.5,227.167 190.5,224.833 190.5,222.5C 193.187,222.664 195.854,222.497 198.5,222C 199.907,218.214 201.24,214.381 202.5,210.5C 195.965,190.894 189.631,171.227 183.5,151.5 Z"/></g>
<g><path style="opacity:1" fill="#000000" d="M 73.5,240.5 C 216.5,240.333 359.5,240.5 502.5,241C 505.167,243.667 505.167,246.333 502.5,249C 359.5,249.667 216.5,249.667 73.5,249C 70.9387,246.177 70.9387,243.343 73.5,240.5 Z"/></g>
<g><path style="opacity:0.999" fill="#171717" d="M 113.5,260.5 C 115.5,260.5 117.5,260.5 119.5,260.5C 119.5,261.5 119.5,262.5 119.5,263.5C 113.671,263 111.337,265.666 112.5,271.5C 114.5,271.5 116.5,271.5 118.5,271.5C 118.5,272.5 118.5,273.5 118.5,274.5C 116.5,274.5 114.5,274.5 112.5,274.5C 112.5,281.167 112.5,287.833 112.5,294.5C 111.5,294.5 110.5,294.5 109.5,294.5C 110.049,287.162 109.382,279.995 107.5,273C 109.032,270.039 109.866,266.872 110,263.5C 111.145,262.364 112.312,261.364 113.5,260.5 Z"/></g>
<g><path style="opacity:1" fill="#0e0e0e" d="M 427.5,260.5 C 429.478,271.451 430.144,282.784 429.5,294.5C 428.5,294.5 427.5,294.5 426.5,294.5C 426.189,283.086 426.523,271.752 427.5,260.5 Z"/></g>
<g><path style="opacity:0.996" fill="#3e3e3e" d="M 229.5,261.5 C 233.173,262.708 233.34,264.374 230,266.5C 229.167,265.667 228.333,264.833 227.5,264C 228.381,263.292 229.047,262.458 229.5,261.5 Z"/></g>
<g><path style="opacity:0.999" fill="#171717" d="M 72.5,263.5 C 75.2469,263.187 77.9135,263.52 80.5,264.5C 79.675,265.386 78.675,265.719 77.5,265.5C 77.5,274.167 77.5,282.833 77.5,291.5C 78.5,291.5 79.5,291.5 80.5,291.5C 80.5,292.5 80.5,293.5 80.5,294.5C 77.8127,294.664 75.146,294.497 72.5,294C 71.3909,292.187 72.0576,291.354 74.5,291.5C 75.0488,281.974 74.3821,272.641 72.5,263.5 Z"/></g>
<g><path style="opacity:0.999" fill="#080808" d="M 296.5,263.5 C 303.2,263.17 309.866,263.503 316.5,264.5C 313.572,265.484 310.572,265.817 307.5,265.5C 306.833,304.167 306.167,304.167 305.5,265.5C 301.988,266.055 298.988,265.388 296.5,263.5 Z"/></g>
<g><path style="opacity:0.331" fill="#929292" d="M 217.5,267.5 C 218.434,268.568 218.768,269.901 218.5,271.5C 220.415,271.216 222.081,271.549 223.5,272.5C 221.5,272.5 219.5,272.5 217.5,272.5C 217.5,270.833 217.5,269.167 217.5,267.5 Z"/></g>
<g><path style="opacity:0.999" fill="#212121" d="M 345.5,271.5 C 348.545,271.508 351.545,271.841 354.5,272.5C 354.808,274.924 354.474,277.257 353.5,279.5C 350.27,273.228 346.104,272.895 341,278.5C 338.574,289.9 343.074,293.9 354.5,290.5C 354.5,291.5 354.5,292.5 354.5,293.5C 340.191,296.959 334.691,291.625 338,277.5C 339.707,274.41 342.207,272.41 345.5,271.5 Z"/></g>
<g><path style="opacity:0.999" fill="#121212" d="M 87.5,271.5 C 88.1515,272.091 88.8182,272.757 89.5,273.5C 93.9554,270.66 98.1221,270.993 102,274.5C 102.5,281.158 102.666,287.825 102.5,294.5C 101.5,294.5 100.5,294.5 99.5,294.5C 99.6662,288.491 99.4995,282.491 99,276.5C 95.738,273.923 92.4046,273.923 89,276.5C 88.5006,282.157 88.3339,287.824 88.5,293.5C 87.179,290.402 86.5123,286.902 86.5,283C 86.5335,279.085 86.8668,275.251 87.5,271.5 Z"/></g>
<g><path style="opacity:0.999" fill="#1c1c1c" d="M 127.5,271.5 C 139.426,271.997 143.259,277.997 139,289.5C 133.31,295.773 127.31,296.107 121,290.5C 117.558,281.986 119.724,275.652 127.5,271.5 Z M 127.5,274.5 C 135.587,274.432 138.754,278.432 137,286.5C 132.333,293.167 127.667,293.167 123,286.5C 121.474,281.239 122.974,277.239 127.5,274.5 Z"/></g>
<g><path style="opacity:0.999" fill="#353535" d="M 144.5,271.5 C 145.5,271.5 146.5,271.5 147.5,271.5C 147.03,275.97 148.03,276.47 150.5,273C 152.579,272.192 154.579,272.359 156.5,273.5C 153.266,274.041 150.433,275.374 148,277.5C 147.667,282.833 147.333,288.167 147,293.5C 146.586,293.957 146.086,294.291 145.5,294.5C 144.503,286.862 144.169,279.196 144.5,271.5 Z"/></g>
<g><path style="opacity:0.982" fill="#353535" d="M 158.5,271.5 C 160.143,271.48 161.476,272.147 162.5,273.5C 166.467,270.954 170.467,270.954 174.5,273.5C 180.155,270.128 184.655,271.128 188,276.5C 188.667,282.167 188.667,287.833 188,293.5C 187.586,293.957 187.086,294.291 186.5,294.5C 185.67,288.862 185.17,283.196 185,277.5C 182.779,274.488 179.946,273.821 176.5,275.5C 175.815,281.721 175.148,287.888 174.5,294C 174.167,294.167 173.833,294.333 173.5,294.5C 172.67,288.862 172.17,283.196 172,277.5C 169.202,273.819 165.869,273.486 162,276.5C 161.502,279.482 161.335,282.482 161.5,285.5C 160.5,285.5 159.5,285.5 158.5,285.5C 158.5,280.833 158.5,276.167 158.5,271.5 Z"/></g>
<g><path style="opacity:0.999" fill="#1e1e1e" d="M 199.5,271.5 C 203.115,271.206 206.282,272.206 209,274.5C 209.5,281.158 209.666,287.825 209.5,294.5C 207.876,294.64 206.71,293.973 206,292.5C 201.34,295.271 197.007,294.938 193,291.5C 192.313,289.08 192.813,286.913 194.5,285C 198.346,283.464 202.346,282.631 206.5,282.5C 207.327,275.497 204.327,272.997 197.5,275C 195.911,276.543 194.577,276.543 193.5,275C 195.223,273.251 197.223,272.084 199.5,271.5 Z M 202.5,284.5 C 203.833,284.5 205.167,284.5 206.5,284.5C 206.662,286.527 206.495,288.527 206,290.5C 202.927,291.617 199.76,291.784 196.5,291C 195.167,289.667 195.167,288.333 196.5,287C 198.611,286.155 200.611,285.322 202.5,284.5 Z"/></g>
<g><path style="opacity:0.999" fill="#1b1b1b" d="M 217.5,267.5 C 217.5,269.167 217.5,270.833 217.5,272.5C 219.5,272.5 221.5,272.5 223.5,272.5C 222.448,274.256 220.781,274.923 218.5,274.5C 218.334,279.844 218.501,285.177 219,290.5C 220.333,291.833 221.667,291.833 223,290.5C 222.043,295.182 219.71,295.515 216,291.5C 215.501,285.843 215.334,280.176 215.5,274.5C 214.5,274.5 213.5,274.5 212.5,274.5C 212.5,273.5 212.5,272.5 212.5,271.5C 213.5,271.5 214.5,271.5 215.5,271.5C 215.157,269.517 215.824,268.183 217.5,267.5 Z"/></g>
<g><path style="opacity:1" fill="#111111" d="M 228.5,271.5 C 229.5,271.5 230.5,271.5 231.5,271.5C 231.5,279.167 231.5,286.833 231.5,294.5C 230.5,294.5 229.5,294.5 228.5,294.5C 228.5,286.833 228.5,279.167 228.5,271.5 Z"/></g>
<g><path style="opacity:0.998" fill="#202020" d="M 245.5,271.5 C 253.41,271.081 257.41,274.747 257.5,282.5C 257.782,289.722 254.282,293.722 247,294.5C 236.798,291.595 234.131,285.262 239,275.5C 241.013,273.752 243.18,272.418 245.5,271.5 Z M 244.5,274.5 C 252.986,274.161 256.152,278.161 254,286.5C 252.287,291.038 249.12,292.538 244.5,291C 239.584,286.842 238.751,282.009 242,276.5C 242.995,275.934 243.828,275.267 244.5,274.5 Z"/></g>
<g><path style="opacity:0.998" fill="#171717" d="M 277.5,276.5 C 278.117,282.598 277.45,288.265 275.5,293.5C 275.666,288.156 275.499,282.823 275,277.5C 272.074,273.92 268.74,273.587 265,276.5C 264.501,282.491 264.334,288.491 264.5,294.5C 263.5,294.5 262.5,294.5 261.5,294.5C 261.5,286.833 261.5,279.167 261.5,271.5C 263.143,271.48 264.476,272.147 265.5,273.5C 269.335,270.901 273.169,270.901 277,273.5C 277.483,274.448 277.649,275.448 277.5,276.5 Z"/></g>
<g><path style="opacity:0.998" fill="#191919" d="M 323.5,271.5 C 331.45,270.963 335.117,274.63 334.5,282.5C 329.167,282.5 323.833,282.5 318.5,282.5C 318.988,290.925 323.321,293.592 331.5,290.5C 332.5,290.833 333.167,291.5 333.5,292.5C 320.007,297.164 314.174,292.497 316,278.5C 317.767,275.228 320.267,272.895 323.5,271.5 Z M 323.5,274.5 C 327.703,273.702 330.37,275.369 331.5,279.5C 327.5,280.833 323.5,280.833 319.5,279.5C 320.508,277.501 321.841,275.834 323.5,274.5 Z"/></g>
<g><path style="opacity:0.999" fill="#262626" d="M 359.5,260.5 C 361.28,264.727 362.114,269.394 362,274.5C 365.502,271.399 369.335,270.899 373.5,273C 374.893,274.171 375.727,275.671 376,277.5C 376.667,282.833 376.667,288.167 376,293.5C 375.586,293.957 375.086,294.291 374.5,294.5C 373.794,288.478 373.128,282.478 372.5,276.5C 369.24,273.941 365.906,273.941 362.5,276.5C 361.504,282.463 361.171,288.463 361.5,294.5C 360.5,294.5 359.5,294.5 358.5,294.5C 358.189,283.086 358.523,271.752 359.5,260.5 Z"/></g>
<g><path style="opacity:0.998" fill="#1c1c1c" d="M 409.5,271.5 C 418.065,270.566 422.399,274.399 422.5,283C 422.152,289.682 418.652,293.516 412,294.5C 404.744,294.18 401.244,290.347 401.5,283C 401.671,277.343 404.338,273.51 409.5,271.5 Z M 409.5,274.5 C 418.631,275.071 421.464,279.737 418,288.5C 412.879,292.875 408.545,292.209 405,286.5C 403.87,281.375 405.37,277.375 409.5,274.5 Z"/></g>
<g><path style="opacity:0.998" fill="#1b1b1b" d="M 441.5,271.5 C 453.429,272.011 457.262,278.011 453,289.5C 448.741,294.486 443.574,295.653 437.5,293C 433.695,288.909 432.528,284.076 434,278.5C 435.767,275.228 438.267,272.895 441.5,271.5 Z M 441.5,274.5 C 449.642,274.481 452.808,278.481 451,286.5C 448.774,290.861 445.274,292.361 440.5,291C 434.953,285.032 435.287,279.532 441.5,274.5 Z"/></g>
<g><path style="opacity:0.999" fill="#202020" d="M 463.5,271.5 C 468.214,271.173 472.88,271.507 477.5,272.5C 476.271,273.281 474.938,273.781 473.5,274C 476.2,277.915 475.867,281.581 472.5,285C 468.974,286.337 465.308,286.837 461.5,286.5C 461.281,287.675 461.614,288.675 462.5,289.5C 466.922,290.583 471.256,291.917 475.5,293.5C 478.49,297.717 477.823,301.217 473.5,304C 468.833,304.667 464.167,304.667 459.5,304C 456.71,301.79 455.877,298.956 457,295.5C 458.479,293.618 459.312,291.451 459.5,289C 458.204,284.917 457.704,280.751 458,276.5C 459.107,273.887 460.94,272.22 463.5,271.5 Z M 462.5,274.5 C 467.087,273.622 470.42,275.122 472.5,279C 470.437,283.218 467.104,284.552 462.5,283C 460.047,280.251 460.047,277.417 462.5,274.5 Z M 462.5,292.5 C 465.822,293.223 469.155,294.057 472.5,295C 474.211,296.133 474.711,297.633 474,299.5C 469.79,303.075 465.29,303.408 460.5,300.5C 459.369,298.926 459.202,297.259 460,295.5C 461.045,294.627 461.878,293.627 462.5,292.5 Z"/></g>
<g><path style="opacity:0.998" fill="#222222" d="M 480.5,271.5 C 481.822,271.33 482.989,271.663 484,272.5C 485.996,278.489 487.996,284.489 490,290.5C 493.09,284.652 495.923,278.652 498.5,272.5C 499.325,271.614 500.325,271.281 501.5,271.5C 497.628,281.583 493.462,291.583 489,301.5C 488.388,304.032 486.888,304.865 484.5,304C 485.825,301.015 487.158,298.015 488.5,295C 485.686,287.208 483.02,279.375 480.5,271.5 Z"/></g>
<g><path style="opacity:0.995" fill="#1a1a1a" d="M 380.5,271.5 C 382.124,271.36 383.29,272.027 384,273.5C 388.965,270.428 393.298,271.095 397,275.5C 397.5,281.825 397.666,288.158 397.5,294.5C 396.5,294.5 395.5,294.5 394.5,294.5C 394.666,289.156 394.499,283.823 394,278.5C 391.592,274.018 388.259,273.351 384,276.5C 383.501,282.491 383.334,288.491 383.5,294.5C 382.5,294.5 381.5,294.5 380.5,294.5C 380.5,286.833 380.5,279.167 380.5,271.5 Z"/></g>
<g><path style="opacity:0.673" fill="#656565" d="M 87.5,271.5 C 86.8668,275.251 86.5335,279.085 86.5,283C 86.5123,286.902 87.179,290.402 88.5,293.5C 87.791,294.404 86.791,294.737 85.5,294.5C 84.8682,286.427 85.5349,278.76 87.5,271.5 Z"/></g>
<g><path style="opacity:0.838" fill="#383838" d="M 160.5,286.5 C 161.8,289.024 161.8,291.691 160.5,294.5C 157.843,291.867 157.843,289.201 160.5,286.5 Z"/></g>
<g><path style="opacity:0.57" fill="#808080" d="M 277.5,276.5 C 278.49,282.31 278.823,288.31 278.5,294.5C 277.209,294.737 276.209,294.404 275.5,293.5C 277.45,288.265 278.117,282.598 277.5,276.5 Z"/></g>
</svg>
